<?xml version="1.0" standalone="no"?>
<!DOCTYPE svg PUBLIC "-//W3C//DTD SVG 20010904//EN"
 "http://www.w3.org/TR/2001/REC-SVG-20010904/DTD/svg10.dtd">
<svg version="1.0" xmlns="http://www.w3.org/2000/svg"
 width="700.000000pt" height="700.000000pt" viewBox="0 0 700.000000 700.000000"
 preserveAspectRatio="xMidYMid meet">
<metadata>
Created by potrace 1.14, written by Peter Selinger 2001-2017
</metadata>
<g transform="translate(0.000000,700.000000) scale(0.100000,-0.100000)"
fill="#000000" stroke="none">
<path d="M3425 6884 c-27 -13 -95 -45 -150 -70 -488 -226 -682 -315 -889 -413
-59 -28 -110 -51 -111 -51 -2 0 -47 -21 -102 -46 -157 -74 -244 -114 -303
-141 -87 -40 -161 -74 -380 -176 -370 -172 -764 -354 -810 -375 -250 -114
-295 -139 -323 -182 l-28 -43 1 -436 c1 -240 3 -789 6 -1221 2 -432 6 -1099 8
-1484 4 -664 5 -699 22 -716 11 -10 71 -42 134 -70 63 -29 166 -77 229 -106
62 -30 115 -54 117 -54 1 0 51 -23 111 -51 131 -62 210 -99 283 -132 30 -14
96 -44 145 -67 50 -23 137 -64 195 -90 58 -26 150 -69 205 -95 55 -26 152 -71
215 -100 63 -29 149 -69 190 -88 78 -36 124 -57 345 -159 72 -33 157 -72 190
-88 33 -15 188 -88 345 -160 157 -72 313 -145 347 -161 100 -48 107 -47 229
11 60 29 159 76 219 105 61 29 182 87 270 130 88 43 210 101 270 130 139 67
327 157 525 253 252 122 385 185 390 187 3 0 61 28 130 62 155 75 342 165 480
231 58 27 175 83 260 125 85 41 217 104 293 140 100 48 139 72 146 89 7 21 7
638 -2 3085 -3 796 -4 803 -41 803 -7 0 -23 11 -36 25 -13 14 -28 25 -33 25
-6 0 -33 11 -61 24 -28 13 -113 54 -190 90 -76 36 -140 66 -141 66 -2 0 -59
26 -127 59 -190 91 -318 151 -373 176 -27 12 -95 44 -150 70 -55 26 -163 76
-240 112 -77 36 -196 93 -265 125 -69 33 -150 72 -180 85 -30 14 -106 50 -169
79 -62 30 -115 54 -116 54 -2 0 -63 29 -137 64 -169 81 -297 141 -373 176
-124 57 -176 81 -320 150 -81 38 -160 70 -174 69 -14 0 -48 -11 -76 -25z"/>
</g>
</svg>
